<mxfile host="app.diagrams.net" modified="2023-10-10T04:06:43.223Z" agent="Mozilla/5.0 (X11; CrOS x86_64 14541.0.0) AppleWebKit/537.36 (KHTML, like Gecko) Chrome/116.0.0.0 Safari/537.36" etag="OmwcPPzF_lr2iWRc31QP" version="22.0.4" type="github">
  <diagram id="C5RBs43oDa-KdzZeNtuy" name="Page-1">
    <mxGraphModel dx="2200" dy="1178" grid="1" gridSize="10" guides="1" tooltips="1" connect="1" arrows="1" fold="1" page="1" pageScale="1" pageWidth="827" pageHeight="1169" math="0" shadow="0">
      <root>
        <mxCell id="WIyWlLk6GJQsqaUBKTNV-0" />
        <mxCell id="WIyWlLk6GJQsqaUBKTNV-1" parent="WIyWlLk6GJQsqaUBKTNV-0" />
        <mxCell id="0_jw6l1bUVso6dEtxwWt-0" value="" style="whiteSpace=wrap;html=1;rounded=1;arcSize=50;" vertex="1" parent="WIyWlLk6GJQsqaUBKTNV-1">
          <mxGeometry x="305" y="80" width="250" height="76.39" as="geometry" />
        </mxCell>
        <mxCell id="0_jw6l1bUVso6dEtxwWt-1" value="" style="endArrow=classic;html=1;rounded=0;" edge="1" parent="WIyWlLk6GJQsqaUBKTNV-1">
          <mxGeometry width="50" height="50" relative="1" as="geometry">
            <mxPoint x="430" y="160" as="sourcePoint" />
            <mxPoint x="430" y="290" as="targetPoint" />
          </mxGeometry>
        </mxCell>
        <mxCell id="0_jw6l1bUVso6dEtxwWt-2" value="" style="endArrow=classic;html=1;rounded=0;entryX=0.5;entryY=0;entryDx=0;entryDy=0;exitX=0.5;exitY=1;exitDx=0;exitDy=0;" edge="1" parent="WIyWlLk6GJQsqaUBKTNV-1" target="0_jw6l1bUVso6dEtxwWt-3">
          <mxGeometry width="50" height="50" relative="1" as="geometry">
            <mxPoint x="432.5" y="330" as="sourcePoint" />
            <mxPoint x="440" y="290" as="targetPoint" />
            <Array as="points" />
          </mxGeometry>
        </mxCell>
        <mxCell id="0_jw6l1bUVso6dEtxwWt-3" value="" style="rounded=0;whiteSpace=wrap;html=1;" vertex="1" parent="WIyWlLk6GJQsqaUBKTNV-1">
          <mxGeometry x="285" y="445" width="290" height="90" as="geometry" />
        </mxCell>
        <mxCell id="0_jw6l1bUVso6dEtxwWt-4" value="" style="shape=parallelogram;perimeter=parallelogramPerimeter;whiteSpace=wrap;html=1;fixedSize=1;" vertex="1" parent="WIyWlLk6GJQsqaUBKTNV-1">
          <mxGeometry x="263.75" y="620" width="322.5" height="90" as="geometry" />
        </mxCell>
        <mxCell id="0_jw6l1bUVso6dEtxwWt-5" value="" style="rhombus;whiteSpace=wrap;html=1;" vertex="1" parent="WIyWlLk6GJQsqaUBKTNV-1">
          <mxGeometry x="337.5" y="780" width="175" height="170" as="geometry" />
        </mxCell>
        <mxCell id="0_jw6l1bUVso6dEtxwWt-6" value="" style="whiteSpace=wrap;html=1;rounded=1;arcSize=50;" vertex="1" parent="WIyWlLk6GJQsqaUBKTNV-1">
          <mxGeometry x="313.75" y="1040" width="222.5" height="80" as="geometry" />
        </mxCell>
        <mxCell id="0_jw6l1bUVso6dEtxwWt-7" value="" style="endArrow=classic;html=1;rounded=0;entryX=0.5;entryY=0;entryDx=0;entryDy=0;exitX=0.5;exitY=1;exitDx=0;exitDy=0;" edge="1" parent="WIyWlLk6GJQsqaUBKTNV-1" source="0_jw6l1bUVso6dEtxwWt-4" target="0_jw6l1bUVso6dEtxwWt-5">
          <mxGeometry width="50" height="50" relative="1" as="geometry">
            <mxPoint x="431.67" y="670" as="sourcePoint" />
            <mxPoint x="431.67" y="760" as="targetPoint" />
            <Array as="points" />
          </mxGeometry>
        </mxCell>
        <mxCell id="0_jw6l1bUVso6dEtxwWt-8" value="" style="endArrow=classic;html=1;rounded=0;exitX=0.5;exitY=1;exitDx=0;exitDy=0;" edge="1" parent="WIyWlLk6GJQsqaUBKTNV-1" source="0_jw6l1bUVso6dEtxwWt-3" target="0_jw6l1bUVso6dEtxwWt-4">
          <mxGeometry width="50" height="50" relative="1" as="geometry">
            <mxPoint x="443" y="340" as="sourcePoint" />
            <mxPoint x="440" y="440" as="targetPoint" />
            <Array as="points" />
          </mxGeometry>
        </mxCell>
        <mxCell id="0_jw6l1bUVso6dEtxwWt-9" value="" style="shape=parallelogram;perimeter=parallelogramPerimeter;whiteSpace=wrap;html=1;fixedSize=1;" vertex="1" parent="WIyWlLk6GJQsqaUBKTNV-1">
          <mxGeometry x="270" y="290" width="298.93" height="90" as="geometry" />
        </mxCell>
        <mxCell id="0_jw6l1bUVso6dEtxwWt-10" value="mulai" style="text;html=1;strokeColor=none;fillColor=none;align=center;verticalAlign=middle;whiteSpace=wrap;rounded=0;fontSize=22;fontStyle=1" vertex="1" parent="WIyWlLk6GJQsqaUBKTNV-1">
          <mxGeometry x="330" y="90" width="190" height="60" as="geometry" />
        </mxCell>
        <mxCell id="0_jw6l1bUVso6dEtxwWt-11" value="" style="endArrow=classic;html=1;rounded=0;entryX=0;entryY=0.25;entryDx=0;entryDy=0;exitX=0;exitY=0.5;exitDx=0;exitDy=0;" edge="1" parent="WIyWlLk6GJQsqaUBKTNV-1" source="0_jw6l1bUVso6dEtxwWt-5" target="0_jw6l1bUVso6dEtxwWt-9">
          <mxGeometry width="50" height="50" relative="1" as="geometry">
            <mxPoint x="150" y="869.0909090909091" as="sourcePoint" />
            <mxPoint x="290" y="300" as="targetPoint" />
            <Array as="points">
              <mxPoint x="160" y="865" />
              <mxPoint x="160" y="315" />
            </Array>
          </mxGeometry>
        </mxCell>
        <mxCell id="0_jw6l1bUVso6dEtxwWt-12" value="input:&lt;br style=&quot;font-size: 22px;&quot;&gt;kata kunci" style="text;html=1;strokeColor=none;fillColor=none;align=center;verticalAlign=middle;whiteSpace=wrap;rounded=0;fontSize=22;fontStyle=1" vertex="1" parent="WIyWlLk6GJQsqaUBKTNV-1">
          <mxGeometry x="320" y="300" width="220" height="70" as="geometry" />
        </mxCell>
        <mxCell id="0_jw6l1bUVso6dEtxwWt-13" value="search by: kata kunci" style="text;html=1;strokeColor=none;fillColor=none;align=center;verticalAlign=middle;whiteSpace=wrap;rounded=0;fontSize=22;fontStyle=1" vertex="1" parent="WIyWlLk6GJQsqaUBKTNV-1">
          <mxGeometry x="295" y="475" width="260" height="30" as="geometry" />
        </mxCell>
        <mxCell id="0_jw6l1bUVso6dEtxwWt-14" value="hasil pencarian" style="text;html=1;strokeColor=none;fillColor=none;align=center;verticalAlign=middle;whiteSpace=wrap;rounded=0;fontSize=22;fontStyle=1" vertex="1" parent="WIyWlLk6GJQsqaUBKTNV-1">
          <mxGeometry x="325" y="650" width="195" height="30" as="geometry" />
        </mxCell>
        <mxCell id="0_jw6l1bUVso6dEtxwWt-15" value="&amp;nbsp;cari lagi?" style="text;html=1;strokeColor=none;fillColor=none;align=center;verticalAlign=middle;whiteSpace=wrap;rounded=0;fontSize=22;fontStyle=1" vertex="1" parent="WIyWlLk6GJQsqaUBKTNV-1">
          <mxGeometry x="370" y="850" width="120" height="30" as="geometry" />
        </mxCell>
        <mxCell id="0_jw6l1bUVso6dEtxwWt-16" value="selesai" style="text;html=1;strokeColor=none;fillColor=none;align=center;verticalAlign=middle;whiteSpace=wrap;rounded=0;fontSize=22;fontStyle=1" vertex="1" parent="WIyWlLk6GJQsqaUBKTNV-1">
          <mxGeometry x="395" y="1065" width="60" height="30" as="geometry" />
        </mxCell>
        <mxCell id="0_jw6l1bUVso6dEtxwWt-17" value="" style="endArrow=none;html=1;rounded=0;entryX=0.5;entryY=1;entryDx=0;entryDy=0;" edge="1" parent="WIyWlLk6GJQsqaUBKTNV-1" target="0_jw6l1bUVso6dEtxwWt-5">
          <mxGeometry width="50" height="50" relative="1" as="geometry">
            <mxPoint x="425" y="980" as="sourcePoint" />
            <mxPoint x="400" y="1010" as="targetPoint" />
          </mxGeometry>
        </mxCell>
        <mxCell id="0_jw6l1bUVso6dEtxwWt-18" value="" style="endArrow=classic;html=1;rounded=0;entryX=0.525;entryY=-0.013;entryDx=0;entryDy=0;entryPerimeter=0;" edge="1" parent="WIyWlLk6GJQsqaUBKTNV-1">
          <mxGeometry width="50" height="50" relative="1" as="geometry">
            <mxPoint x="424.66" y="1011.04" as="sourcePoint" />
            <mxPoint x="425.2225" y="1040" as="targetPoint" />
          </mxGeometry>
        </mxCell>
        <mxCell id="0_jw6l1bUVso6dEtxwWt-19" value="tidak" style="text;html=1;strokeColor=none;fillColor=none;align=center;verticalAlign=middle;whiteSpace=wrap;rounded=0;fontStyle=1;fontSize=15;" vertex="1" parent="WIyWlLk6GJQsqaUBKTNV-1">
          <mxGeometry x="395" y="980" width="60" height="30" as="geometry" />
        </mxCell>
      </root>
    </mxGraphModel>
  </diagram>
</mxfile>
